<svg width="138" height="129" viewBox="0 0 138 129" fill="none" xmlns="http://www.w3.org/2000/svg">
<path d="M136.5 64.5C136.5 99.2003 106.376 127.5 69 127.5C31.6239 127.5 1.5 99.2003 1.5 64.5C1.5 29.7997 31.6239 1.5 69 1.5C106.376 1.5 136.5 29.7997 136.5 64.5Z" stroke="white" stroke-width="3"/>
<path d="M23.5 46.5C17.1 46.1 11.5 52.3333 9.5 55.5C11.6667 56.6667 17.8 59.1 25 59.5C21.1667 63.3333 14.5 73 18.5 81C25.6667 75.5 40 64.4 40 64C40.5 63.6667 41.8 62.4 43 60C44.1667 60.3514 47.2 60.8434 50 60C57.8333 57.6667 73.5 52.8 73.5 52C68.3 44.4 56.6667 44.8333 51.5 46C53.6667 41.5 57.9 32.2 57.5 31C33.5 32.5 38.7 51.3 37.5 50.5C36 49.5 31.5 47 23.5 46.5Z" stroke="white" stroke-width="3"/>
<path d="M64.5 68C64.1 69.2 77.6667 72.8333 84.5 74.5C86 74.8333 89.3 75.4 90.5 75C91.3333 76 93.1 78 93.5 78L111 93C115 83 109.667 76.1667 106.5 74C112.9 73.6 117.833 71.5 119.5 70.5C111.5 59.3 100.5 62.5 96 65.5C94 47 79 49.5 77.5 49.5C76.3 49.5 80.6667 57.8333 83 62C74 58 65 66.5 64.5 68Z" stroke="white" stroke-width="3"/>
<path d="M90 33.5C91.6 22.7 99.5 19.5 105.5 20C111.978 20.5398 120.2 27 119 37C117.8 47 107.5 49.1667 102.5 49C97.6667 48.3333 88.4 44.3 90 33.5Z" stroke="white" stroke-width="3"/>
<path d="M50 93C53.3056 92.3333 61.3333 91.1 67 91.5C65.1111 78.7 54.8796 65.8333 50 61C48.5 61.3333 45 61.8 43 61C42.5 62 41.2 64.2 40 65C45 71 49.6 87.4 50 93ZM72.5 92C75.5 92.1667 82.6 93.1 87 95.5C88 90 90.7 79 93.5 79C92.1667 78 89.7 76 90.5 76C91.5 76 86 76.5 84 75.5C81.3333 78 75.3 84.8 72.5 92Z" stroke="white" stroke-width="3"/>
<path d="M76.5 84.5C78.8333 86.8333 84.4 91.2 88 90M80.5 79C82.6667 81.1667 87.6 85.2 90 84M49 88.5C54.5 88.5 65.5 87.9 65.5 85.5M46.5 79.5C51.1667 79.3333 60.5 78.2 60.5 75M44 72C48.3333 71.6667 56.7 70.3 55.5 67.5M41.5 67C44.8333 66.6667 51.6 65.5 52 63.5" stroke="white" stroke-width="3"/>
<path d="M19.5 108.5C20 108.333 21.3 108 22.5 108M22.5 108C24 108 60.5 70.5 106.5 108M22.5 108C22.9 109.2 28 111.5 32.5 112.5C40.5 112.5 43 108.5 49 112.5C60.5 120.167 65 115.722 67.5 113.5C72 109.5 77.0825 105.227 87 112.5C94.5 118 103.667 111.333 106.5 108M106.5 108C108.333 108.333 112.4 109.6 114 112" stroke="white" stroke-width="3"/>
</svg>
