<svg width="138" height="129" viewBox="0 0 138 129" fill="none" xmlns="http://www.w3.org/2000/svg">
<path d="M136.75 64.5C136.75 99.3539 106.498 127.75 69 127.75C31.502 127.75 1.25 99.3539 1.25 64.5C1.25 29.6461 31.502 1.25 69 1.25C106.498 1.25 136.75 29.6461 136.75 64.5Z" stroke="white" stroke-width="2.5"/>
<path d="M23.5 48.5C17.1 48.1 11.5 54.3333 9.5 57.5C11.6667 58.6667 17.8 61.1 25 61.5C21.1667 65.3333 14.5 75 18.5 83C25.6667 77.5 40 66.4 40 66C40.5 65.6667 41.8 64.4 43 62C44.1667 62.3514 47.2 62.8434 50 62C57.8333 59.6667 73.5 54.8 73.5 54C68.3 46.4 56.6667 46.8333 51.5 48C53.6667 43.5 57.9 34.2 57.5 33C33.5 34.5 38.7 53.3 37.5 52.5C36 51.5 31.5 49 23.5 48.5Z" stroke="white" stroke-width="2.5"/>
<path d="M64.5 70C64.1 71.2 77.6667 74.8333 84.5 76.5C86 76.8333 89.3 77.4 90.5 77C91.3333 78 93.1 80 93.5 80L111 95C115 85 109.667 78.1667 106.5 76C112.9 75.6 117.833 73.5 119.5 72.5C111.5 61.3 100.5 64.5 96 67.5C94 49 79 51.5 77.5 51.5C76.3 51.5 80.6667 59.8333 83 64C74 60 65 68.5 64.5 70Z" stroke="white" stroke-width="2.5"/>
<path d="M90 33.5C91.6 22.7 99.5 19.5 105.5 20C111.978 20.5398 120.2 27 119 37C117.8 47 107.5 49.1667 102.5 49C97.6667 48.3333 88.4 44.3 90 33.5Z" stroke="white" stroke-width="2.5"/>
<path d="M50 94C53.3056 93.3333 61.3333 92.1 67 92.5C65.1111 79.7 54.8796 66.8333 50 62C48.5 62.3333 45 62.8 43 62C42.5 63 41.2 65.2 40 66C45 72 49.6 88.4 50 94ZM72.5 93C75.5 93.1667 82.6 94.1 87 96.5C88 91 90.7 80 93.5 80C92.1667 79 89.7 77 90.5 77C91.5 77 86 77.5 84 76.5C81.3333 79 75.3 85.8 72.5 93Z" stroke="white" stroke-width="2.5"/>
<path d="M76.5 85.5C78.8333 87.8333 84.4 92.2 88 91M80.5 80C82.6667 82.1667 87.6 86.2 90 85M49 89.5C54.5 89.5 65.5 88.9 65.5 86.5M46.5 80.5C51.1667 80.3333 60.5 79.2 60.5 76M44 73C48.3333 72.6667 56.7 71.3 55.5 68.5M41.5 68C44.8333 67.6667 51.6 66.5 52 64.5" stroke="white" stroke-width="2.5"/>
<path d="M19.5 109.5C20 109.333 21.3 109 22.5 109M22.5 109C24 109 60.5 71.5 106.5 109M22.5 109C22.9 110.2 28 112.5 32.5 113.5C40.5 113.5 43 109.5 49 113.5C60.5 121.167 65 116.722 67.5 114.5C72 110.5 77.0825 106.227 87 113.5C94.5 119 103.667 112.333 106.5 109M106.5 109C108.333 109.333 112.4 110.6 114 113" stroke="white" stroke-width="2.5"/>
</svg>
